<svg xmlns="http://www.w3.org/2000/svg" viewBox="0 0 200 230" role="img" aria-labelledby="title desc">
  <title id="title">Voz Clara Vertical Lockup</title>
  <desc id="desc">Lighthouse emblem above VOZ · CLARA wordmark with diamond separator line.</desc>
  <g transform="translate(14,8)">
    <g transform="translate(36,0)" fill="none" stroke="currentColor" stroke-linecap="round" stroke-linejoin="round">
      <circle cx="50" cy="47" r="38" stroke-width="2.1"/>
      <circle cx="50" cy="47" r="35" stroke-width="1.5"/>
      <path d="M50 18V26" stroke-width="1.5"/>
      <path d="M36 26l8 5" stroke-width="1.3"/><path d="M64 26l-8 5" stroke-width="1.3"/>
      <path d="M34 35l10-2.5" stroke-width="1.3"/><path d="M66 35l-10-2.5" stroke-width="1.3"/>
      <path d="M45.5 29.5 50 26.2l4.5 3.3" stroke-width="1.4"/>
      <path d="M46.5 30.6h7v4.6h-7z" stroke-width="1.2"/>
      <path d="M47.8 30.6v4.6M50 30.6v4.6M52.2 30.6v4.6" stroke-width="0.9"/>
      <path d="M45.1 35.7h9.8M45.8 37.2h8.4" stroke-width="1.3"/>
      <path d="M46.1 37.3 43.4 67.7M53.9 37.3 56.6 67.7" stroke-width="1.45"/>
      <rect x="48.7" y="47" width="2.6" height="4.8" rx="0.2" stroke-width="1.2"/>
      <path d="M47 45.3h6" stroke-width="1.05"/>
      <path d="M42.6 67.8h14.8" stroke-width="1.45"/>
      <path d="M28 73.2C35 69.1 42.4 68 50 68s15 1.1 22 5.2" stroke-width="1.55"/>
    </g>
  </g>
  <text x="100" y="155" text-anchor="middle" fill="currentColor" font-family="Georgia, 'Times New Roman', serif" font-size="24" letter-spacing="3.6">VOZ · CLARA</text>
  <path d="M47 176H86M114 176H153" stroke="currentColor" stroke-width="1.1" fill="none" stroke-linecap="round"/>
  <path d="M97 171l5 5-5 5-5-5z" fill="currentColor" stroke="none"/>
</svg>